<svg width="22" height="22" viewBox="0 0 22 22" fill="none" xmlns="http://www.w3.org/2000/svg">
<path d="M18.0593 0.992186L3.91864 1.00784C2.30334 1.00962 0.990407 2.32547 0.992195 3.94076L1.00784 18.0814C1.00963 19.6967 2.32548 21.0096 3.94077 21.0078L9.83921 21.0013L9.83138 13.931L7.48763 13.9336L7.48374 10.418L9.82749 10.4154L9.82485 8.03255C9.82271 6.09393 11.398 4.51519 13.3366 4.51304L16.8913 4.50911L16.8952 8.02473L13.3405 8.02866L13.3431 10.4115L16.8978 10.4075L16.3158 13.9238L13.347 13.9271L13.3548 20.9974L18.0814 20.9922C19.6967 20.9904 21.0096 19.6745 21.0078 18.0592L20.9922 3.91863C20.9904 2.30334 19.6745 0.990398 18.0593 0.992186Z" fill="black"/>
</svg>
